<svg width="144" height="132" xmlns="http://www.w3.org/2000/svg" xmlns:xlink="http://www.w3.org/1999/xlink" xml:space="preserve" overflow="hidden"><g transform="translate(-363 -192)"><path d="M90.138 6.50647C90.138 6.50647 88.5832 6.03915 87.1723 5.98523 86.2107 5.94929 85.2491 6.31774 85.1952 6.30876 83.6405 5.98523 76.6487 3.72954 72.5597 4.67316 68.1561 5.68866 67.9494 8.23195 67.7428 9.92146 67.5361 11.611 89.3022 14.0914 90.1559 6.50647ZM86.9836 42.7594C86.6553 41.8585 86.3763 40.9405 86.1478 40.0094 85.5636 37.7897 81.6275 36.7022 83.928 34.4914 83.973 34.4466 86.9386 35.7677 86.9836 35.7227 88.4342 34.0371 90.5385 33.0552 92.7622 33.0266 94.9639 33.0266 97.1657 42.1123 93.7237 45.0151 92.9149 45.698 91.8275 43.5053 90.3717 42.8042 89.1135 42.1932 87.4598 43.1279 86.9836 42.7594ZM28.7758 63.8425C28.4512 62.9474 28.1752 62.0354 27.949 61.1104 27.7244 60.2297 27.8413 58.0279 27.0593 56.033 25.8731 53.0134 23.0153 50.4611 24.4082 49.1131 24.4442 49.0771 31.2113 51.5395 31.2383 51.4946 32.811 49.7511 33.3681 52.2315 35.525 52.2315 37.7357 52.2315 38.9669 63.2134 35.525 66.1161 34.7162 66.7992 33.6378 64.5974 32.1819 63.8964 30.9238 63.2853 29.2701 64.2289 28.7849 63.8515Z" fill="#000000" fill-opacity="0.8" transform="matrix(1 0 0 1.04915 363.123 192)"/><path d="M102.827 17.4794C102.908 17.2098 105.64 15.7539 111.032 13.0759 109.738 13.9295 107.168 19.1779 107.411 23.0512 107.518 24.633 108.255 28.7129 109.541 29.7285L103.546 29.7285C103.645 27.0324 103.645 25.1542 103.546 24.0847 103.337 21.8798 103.097 19.6779 102.827 17.4794Z" fill="#000000" fill-opacity="0.8" transform="matrix(1 0 0 1.04915 363.123 192)"/><path d="M87.0645 44.5388C87.0645 44.5388 85.8602 45.7969 84.3505 49.3467 79.8031 60.1039 69.2255 80.9085 67.7338 81.9869 65.7566 83.4158 67.9765 90.3536 76.1454 87.0555 76.1454 87.0555 77.0171 83.5056 77.134 80.4231 77.2508 77.3407 81.8881 65.8376 86.031 58.4593 90.1649 51.0812 91.9353 49.9399 91.9353 46.2912 91.9353 46.2912 90.9198 40.8991 87.0645 44.5388ZM27.8232 23.0961C27.8232 23.0961 29.3511 19.9868 37.601 18.0635 45.8329 16.1134 73.9347 7.45908 73.9347 7.45908 73.9347 7.45908 78.5 6.51546 82.562 7.45908 86.6062 8.41168 96.6265 11.6829 96.6265 11.6829 96.6265 11.6829 101.587 13.66 102.423 16.8143 102.459 16.9222 96.5006 18.5399 95.7547 18.7915 72.0115 26.5921 53.3998 33.3772 39.9105 39.1376 37.6818 36.9 29.9441 35.1295 25.3698 28.5152 24.9654 27.9311 25.7832 26.1247 27.8232 23.0961Z" fill="#000000" fill-opacity="0.8" transform="matrix(1 0 0 1.04915 363.123 192)"/><path d="M102.432 16.8143 83.245 7.98031C82.8946 7.7826 91.2164 6.60532 91.2703 6.25483 91.3332 5.89536 91.7646 4.51139 92.169 4.40355 93.0964 3.74165 94.1479 3.27396 95.2604 3.02856 95.7997 2.88478 109.666 5.30223 109.837 5.32919 109.864 5.32919 113.162 6.25483 113.162 11.1706 106.126 15.0081 102.54 16.8862 102.423 16.8143Z" fill="#000000" fill-opacity="0.8" transform="matrix(1 0 0 1.04915 363.123 192)"/><path d="M107.815 22.0896C107.815 22.0896 108.669 10.7033 116.2 11.6559 116.2 11.6559 123.156 10.0113 124.495 22.0896 124.495 22.0896 131.181 33.7365 135.162 39.1376 139.134 44.5477 139.628 47.8908 137.616 53.876 137.616 53.876 136.51 54.9904 136.402 54.9275 135.072 54.0558 133.634 50.7037 130.579 52.555 130.579 52.555 129.977 52.9863 129.994 52.8247 130.268 49.3991 129.688 45.9591 128.305 42.8133 125.789 37.4662 123.901 35.7406 119.318 31.8493 114.744 27.9671 108.022 34.3927 107.815 22.0896ZM47.7471 42.1123C47.7471 42.1123 48.6009 30.7259 56.1407 31.6786 56.1407 31.6786 64.0762 29.5038 65.4152 41.5821 65.4152 41.5821 72.3261 51.6473 76.3432 57.3091L77.4845 58.8188C81.4657 64.2289 84.4583 64.5255 82.4453 70.5197 82.4453 70.5197 82.3284 73.8088 81.6184 75.3186 80.8816 76.9003 79.5515 76.7026 79.4976 76.6667 78.8954 76.2803 78.1585 73.9078 76.8105 73.2516 75.1569 72.4249 72.9192 73.3326 72.9281 73.2516 73.045 72.3171 72.5507 68.219 70.5018 63.8694 68.0034 58.5312 63.8335 55.7543 59.2592 51.8721 54.6759 47.9897 47.9537 54.4153 47.756 42.1123Z" fill="#000000" fill-opacity="0.8" transform="matrix(1 0 0 1.04915 363.123 192)"/><path d="M110.907 97.7588C108.768 95.9076 111.113 92.5643 112.668 90.3536 113.072 89.7874 113.414 89.2931 113.638 88.9157 114.717 87.0376 120.442 73.081 121.951 69.2346 123.299 65.8016 129.824 54.2086 129.967 53.966 130.859 53.2247 132.048 52.9452 133.175 53.2111 134.839 53.6065 134.839 55.0533 134.883 55.287 136.15 59.7535 126.912 72.5957 123.839 78.0057 122.769 79.893 121.996 82.5082 121.538 83.6135 119.83 87.6935 119.471 95.3054 119.399 95.7727 119.031 100.006 115.463 99.1967 114.429 99.1967 113.123 99.1463 111.875 98.6373 110.907 97.7588ZM51.8271 123.991C49.6793 122.14 51.9169 117.683 53.4627 115.472 53.8671 114.906 54.2086 114.411 54.4332 114.025 55.5116 112.156 60.3736 103.115 61.8924 99.2686 63.2403 95.8356 72.8294 74.429 72.9731 74.1863 73.9454 73.6218 75.0991 73.4574 76.1904 73.728 77.853 74.1323 78.6798 76.4599 78.7246 76.6936 80.0008 81.1511 66.8441 102.63 63.7796 108.04 62.7694 109.801 61.993 111.686 61.4699 113.648 60.5534 118.141 61.5599 121.035 61.4699 121.502 61.1015 125.726 57.1293 125.816 55.943 125.816 54.7658 125.816 52.8876 124.899 51.8271 123.991ZM7.27934 111.014C5.14047 109.154 7.3692 104.706 8.92393 102.495 9.31934 101.92 9.66983 101.434 9.89451 101.048 10.9639 99.1788 15.8348 90.138 17.3446 86.2827 18.6926 82.8586 28.3445 65.0736 28.4883 64.8311 29.4618 64.2696 30.6155 64.1084 31.7056 64.3816 33.3681 64.7771 34.195 67.1047 34.2398 67.3474 34.2398 69.5671 29.3959 76.7836 24.9654 83.6314 22.1705 87.9452 20.4181 92.9778 19.2319 95.0627 18.2247 96.8242 17.4514 98.7093 16.9312 100.67 16.0146 105.164 17.012 108.058 16.9312 108.516 16.5537 112.758 12.5816 112.83 11.4043 112.83 10.218 112.83 8.34877 111.931 7.28833 111.014ZM102.423 17.5603C102.423 23.7612 104.948 30.744 100.482 32.2268 96.0153 33.7096 67.3024 43.029 67.3024 43.029 67.3024 43.029 65.9634 41.6181 65.4152 38.4457 64.6064 33.7096 62.2338 32.8379 60.769 31.8314 60.032 31.3281 73.9167 26.5651 102.423 17.5603ZM28.1558 23.5186C28.1558 29.7194 25.8282 32.6852 25.8282 32.6852 25.8282 32.6852 10.4966 31.4719 9.95742 29.4948 9.89451 29.2701 12.8782 25.0194 16.401 23.0063L28.1558 23.5186Z" fill="#000000" fill-opacity="0.8" transform="matrix(1 0 0 1.04915 363.123 192)"/><path d="M14.7204 26.4932C14.8193 26.4932 36.864 28.2996 38.284 33.7096 38.6973 41.3305 38.9131 46.7405 38.9131 49.9399 38.9131 50.56 35.0217 53.8581 34.2398 53.7412L14.7204 49.1131C14.4688 49.0502 8.6723 43.658 8.32181 36.873 8.07916 32.3615 9.4901 29.6835 10.6764 28.3983 11.8626 27.1043 12.8782 26.4932 14.7204 26.4932ZM29.9081 39.8207C28.668 39.8207 27.7155 40.1621 27.7155 42.5796 27.7155 44.9881 29.1443 44.9341 29.9531 44.9341 30.7619 44.9341 31.6606 44.0534 31.6606 42.5796 31.6606 41.1057 31.1394 39.8207 29.9081 39.8207ZM19.0071 37.3583C17.7669 37.3583 16.8143 37.7087 16.8143 40.1173 16.8143 42.5347 18.2522 42.4807 19.0611 42.4807 19.8609 42.4807 20.7686 41.5911 20.7686 40.1173 20.7686 38.6434 20.2474 37.3583 19.0071 37.3583Z" fill="#000000" fill-opacity="0.8" transform="matrix(1 0 0 1.04915 363.123 192)"/><path d="M15.9426 22.8445C8.51053 27.6795 6.09308 33.7636 8.68128 41.0878 7.45908 40.3779 4.781 39.3624 4.14294 35.8485 3.15437 30.4384 6.5514 24.6778 10.1102 22.5839L15.9517 22.8535ZM39.2276 39.0837 39.587 48.7356 49.131 49.5714C47.9268 47.3246 47.3246 45.096 47.3246 42.8852 47.3246 40.6654 48.6996 35.2284 49.5445 34.6982 54.2176 31.7595 40.7912 34.4285 40.7912 34.4285L39.2276 39.0837Z" fill="#000000" fill-opacity="0.8" transform="matrix(1 0 0 1.04915 363.123 192)"/></g></svg>